<svg width="38" height="38" viewBox="0 0 38 38" fill="none" xmlns="http://www.w3.org/2000/svg">
<path d="M38 19C38 29.4934 29.4934 38 19 38C8.50659 38 0 29.4934 0 19C0 8.50659 8.50659 0 19 0C29.4934 0 38 8.50659 38 19Z" fill="#F2F2F2"/>
<path d="M27.2072 9.72528C27.0846 9.29598 26.6922 9 26.2457 9H11.7543C11.3078 9 10.9154 9.29598 10.7928 9.72528L9 16H29L27.2072 9.72528Z" fill="#C8C8C8"/>
<g style="mix-blend-mode:multiply" opacity="0.4">
<path fill-rule="evenodd" clip-rule="evenodd" d="M24.2457 9C24.6922 9 25.0846 9.29598 25.2073 9.72528L27 16H29L27.2073 9.72528C27.0846 9.29598 26.6922 9 26.2457 9H24.2457Z" fill="#ABABAB"/>
</g>
<path d="M29 16C29 15.4477 28.5523 15 28 15H10C9.44771 15 9 15.4477 9 16V21C9 21.5523 9.44771 22 10 22H28C28.5523 22 29 21.5523 29 21V16Z" fill="#A5A5A5"/>
<circle cx="12.004" cy="18.5" r="0.8" fill="white"/>
<circle cx="15.004" cy="18.5" r="0.8" fill="white"/>
<g style="mix-blend-mode:multiply" opacity="0.4">
<path fill-rule="evenodd" clip-rule="evenodd" d="M26 22H28C28.5523 22 29 21.3827 29 20.6212V20.6742V17.9167V16.3788C29 15.6173 28.5523 15 28 15H26C26.5523 15 27 15.6173 27 16.3788V17.9167V20.6742V20.6212C27 21.3827 26.5523 22 26 22Z" fill="#ABABAB"/>
</g>
<path d="M29 27H9V29H29V27Z" fill="#7B7B7B"/>
<path d="M18 22L18 29L20 29L20 22L18 22Z" fill="#7B7B7B"/>
<path d="M22 27C22 26.4477 21.5523 26 21 26H17C16.4477 26 16 26.4477 16 27V29C16 29.5523 16.4477 30 17 30H21C21.5523 30 22 29.5523 22 29V27Z" fill="#C1C1C1"/>
</svg>
