<svg width="76" height="76" viewBox="0 0 76 76" fill="none" xmlns="http://www.w3.org/2000/svg">
<circle cx="38" cy="38" r="37.5" fill="white" stroke="#FAAD14"/>
<circle cx="38" cy="38" r="30" fill="#E8E8E8"/>
<mask id="mask0_1946_63765" style="mask-type:alpha" maskUnits="userSpaceOnUse" x="18" y="18" width="40" height="40">
<rect x="18" y="18" width="40" height="40" fill="#4D4D4D"/>
</mask>
<g mask="url(#mask0_1946_63765)">
<path fill-rule="evenodd" clip-rule="evenodd" d="M35.5 52.5H22.5V50.5H35.5V52.5Z" fill="#4D4D4D"/>
<path fill-rule="evenodd" clip-rule="evenodd" d="M53.5 52.5H40.5V50.5H53.5V52.5Z" fill="#4D4D4D"/>
<path fill-rule="evenodd" clip-rule="evenodd" d="M39 43L39 48.5L37 48.5L37 43L39 43Z" fill="#4D4D4D"/>
<path d="M40.5 51.5C40.5 52.8807 39.3807 54 38 54C36.6193 54 35.5 52.8807 35.5 51.5C35.5 50.1193 36.6193 49 38 49C39.3807 49 40.5 50.1193 40.5 51.5Z" fill="#4D4D4D"/>
<path fill-rule="evenodd" clip-rule="evenodd" d="M38 49.75C37.0335 49.75 36.25 50.5335 36.25 51.5C36.25 52.4665 37.0335 53.25 38 53.25C38.9665 53.25 39.75 52.4665 39.75 51.5C39.75 50.5335 38.9665 49.75 38 49.75ZM34.75 51.5C34.75 49.7051 36.2051 48.25 38 48.25C39.7949 48.25 41.25 49.7051 41.25 51.5C41.25 53.2949 39.7949 54.75 38 54.75C36.2051 54.75 34.75 53.2949 34.75 51.5Z" fill="#4D4D4D"/>
<path fill-rule="evenodd" clip-rule="evenodd" d="M40.0264 42.0235C39.491 43.0713 38.8156 44.0635 38 45C37.1904 44.0837 36.5194 43.096 35.9871 42.0368C35.4547 40.9777 35.0171 39.7708 34.6743 38.4159H41.34C40.9996 39.7731 40.5617 40.9757 40.0264 42.0235ZM33.9876 41.8427C34.4651 42.917 35.0106 43.8638 35.6241 44.6832C33.7324 44.2322 32.1299 43.4952 30.8165 42.4724C29.5032 41.4496 28.4262 40.0974 27.5856 38.4159H32.8653C33.1359 39.6262 33.51 40.7684 33.9876 41.8427ZM45.1012 42.4653C43.7043 43.5524 42.137 44.2869 40.3992 44.6689C40.9679 43.8525 41.4872 42.9102 41.957 41.8418C42.4268 40.7735 42.8241 39.6315 43.149 38.4159H48.4144C47.6024 40.0284 46.498 41.3782 45.1012 42.4653ZM32.5309 36.6666H26.9534C26.7942 36.1436 26.6789 35.6221 26.6073 35.1021C26.5358 34.582 26.5 34.0307 26.5 33.4482C26.5 32.8717 26.5358 32.3305 26.6073 31.8247C26.6789 31.319 26.7942 30.8076 26.9534 30.2905H32.5452C32.4575 30.8522 32.3964 31.3831 32.3618 31.8832C32.3272 32.3833 32.3099 32.905 32.3099 33.4482C32.3099 33.9534 32.3249 34.467 32.3547 34.9892C32.3845 35.5113 32.4432 36.0704 32.5309 36.6666ZM41.7022 36.6666H34.3121C34.2149 36.0264 34.1491 35.4607 34.1145 34.9695C34.0799 34.4783 34.0626 33.9712 34.0626 33.4482C34.0626 32.9407 34.0799 32.4476 34.1145 31.9689C34.1491 31.4902 34.2149 30.9308 34.3121 30.2905H41.7022C41.7994 30.9308 41.8652 31.4902 41.8998 31.9689C41.9344 32.4476 41.9517 32.9407 41.9517 33.4482C41.9517 33.9712 41.9344 34.4783 41.8998 34.9695C41.8652 35.4607 41.7994 36.0264 41.7022 36.6666ZM49.0466 36.6666H43.4548C43.5425 36.0359 43.606 35.4705 43.6453 34.9704C43.6847 34.4703 43.7043 33.9629 43.7043 33.4482C43.7043 33.0026 43.6871 32.5359 43.6525 32.0483C43.6179 31.5607 43.5598 30.9748 43.4781 30.2905H49.0466C49.2058 30.8076 49.3211 31.319 49.3927 31.8247C49.4642 32.3305 49.5 32.8717 49.5 33.4482C49.5 34.0307 49.4642 34.582 49.3927 35.1021C49.3211 35.6221 49.2058 36.1436 49.0466 36.6666ZM48.4144 28.5412H43.1347C42.8366 27.3149 42.4557 26.1775 41.9919 25.1291C41.528 24.0807 40.9894 23.1293 40.3759 22.2749C42.1901 22.6337 43.7844 23.3491 45.1589 24.4213C46.5333 25.4936 47.6185 26.8669 48.4144 28.5412ZM41.3633 28.5412H34.6743C35.0862 27.0287 35.555 25.7538 36.0805 24.7163C36.606 23.6789 37.2458 22.7735 38 22C38.7887 22.8961 39.4679 23.8949 40.0376 24.9966C40.6072 26.0983 41.0491 27.2798 41.3633 28.5412ZM32.8796 28.5412H27.5856C28.4006 26.8603 29.4859 25.4893 30.8416 24.4281C32.1973 23.3669 33.7837 22.6539 35.6008 22.2891C34.9778 23.1781 34.4383 24.1429 33.9822 25.1836C33.5261 26.2243 33.1586 27.3435 32.8796 28.5412Z" fill="#4D4D4D"/>
</g>
</svg>
