<svg width="76" height="76" viewBox="0 0 76 76" fill="none" xmlns="http://www.w3.org/2000/svg">
<circle cx="38" cy="38" r="37.5" fill="white" stroke="#FAAD14"/>
<circle cx="38" cy="38" r="30" fill="#E8E8E8"/>
<path fill-rule="evenodd" clip-rule="evenodd" d="M38 53.5C46.5604 53.5 53.5 46.5604 53.5 38C53.5 29.4396 46.5604 22.5 38 22.5C29.4396 22.5 22.5 29.4396 22.5 38C22.5 46.5604 29.4396 53.5 38 53.5ZM41.2145 36.2438L45.1278 32.3305L45.0383 34.8988C45.0181 35.4777 45.4711 35.9634 46.05 35.9835C46.629 36.0037 47.1146 35.5508 47.1348 34.9718L47.3152 29.7958C47.3253 29.5051 47.2143 29.2232 47.0086 29.0176C46.803 28.8119 46.5211 28.7009 46.2304 28.711L41.0544 28.8914C40.4754 28.9116 40.0225 29.3972 40.0427 29.9762C40.0628 30.5551 40.5485 31.008 41.1274 30.9879L43.5896 30.902L39.7312 34.7605C39.3216 35.1701 39.3216 35.8342 39.7312 36.2438C40.1408 36.6534 40.8049 36.6534 41.2145 36.2438ZM34.838 39.7561L30.9246 43.6695L31.0142 41.1012C31.0343 40.5222 30.5814 40.0366 30.0025 40.0164C29.4235 39.9962 28.9379 40.4492 28.9177 41.0281L28.7373 46.2042C28.7272 46.4949 28.8382 46.7767 29.0439 46.9824C29.2495 47.188 29.5314 47.2991 29.8221 47.2889L34.9981 47.1085C35.577 47.0884 36.03 46.6027 36.0098 46.0238C35.9896 45.4448 35.504 44.9919 34.9251 45.0121L32.4629 45.0979L36.3213 41.2395C36.7309 40.8299 36.7309 40.1658 36.3213 39.7561C35.9117 39.3465 35.2476 39.3465 34.838 39.7561ZM29.0695 30.4754L32.9828 34.3887L30.4144 34.2992C29.8355 34.2791 29.3498 34.732 29.3296 35.3109C29.3095 35.8899 29.7624 36.3755 30.3413 36.3957L35.5174 36.5761C35.8081 36.5862 36.0899 36.4752 36.2956 36.2695C36.5013 36.0639 36.6123 35.782 36.6022 35.4913L36.4218 30.3153C36.4016 29.7363 35.9159 29.2834 35.337 29.3036C34.7581 29.3237 34.3051 29.8094 34.3253 30.3883L34.4111 32.8504L30.5528 28.9921C30.1432 28.5825 29.4791 28.5825 29.0695 28.9921C28.6598 29.4017 28.6598 30.0658 29.0695 30.4754ZM46.983 45.5248L43.0696 41.6115L45.6379 41.701C46.2169 41.7212 46.7025 41.2682 46.7227 40.6893C46.7429 40.1104 46.2899 39.6247 45.711 39.6045L40.5349 39.4241C40.2442 39.414 39.9624 39.525 39.7567 39.7307C39.5511 39.9364 39.44 40.2182 39.4502 40.5089L39.6306 45.6849C39.6507 46.2639 40.1364 46.7168 40.7153 46.6967C41.2943 46.6765 41.7472 46.1908 41.727 45.6119L41.6412 43.1497L45.4996 47.0081C45.9092 47.4177 46.5733 47.4177 46.983 47.0081C47.3926 46.5985 47.3926 45.9344 46.983 45.5248Z" fill="#4D4D4D"/>
</svg>
