<svg width="76" height="76" viewBox="0 0 76 76" fill="none" xmlns="http://www.w3.org/2000/svg">
<circle cx="38" cy="38" r="37.5" fill="white" stroke="#52C41A"/>
<circle cx="38" cy="38" r="30" fill="#E8E8E8"/>
<path fill-rule="evenodd" clip-rule="evenodd" d="M39 27.8551C40.4457 27.4248 41.5 26.0855 41.5 24.5C41.5 22.567 39.933 21 38 21C36.067 21 34.5 22.567 34.5 24.5C34.5 26.0855 35.5543 27.4248 37 27.8551V33.6115C34.996 34.0662 33.5 35.8584 33.5 38C33.5 38.4188 33.5572 38.8243 33.6643 39.209L28.2613 42.3284C27.6513 41.8117 26.862 41.5 26 41.5C24.067 41.5 22.5 43.067 22.5 45C22.5 46.933 24.067 48.5 26 48.5C27.933 48.5 29.5 46.933 29.5 45C29.5 44.6545 29.4499 44.3207 29.3567 44.0054L34.6175 40.968C35.232 41.6678 36.0601 42.1752 37 42.3885V48.1449C35.5543 48.5752 34.5 49.9145 34.5 51.5C34.5 53.433 36.067 55 38 55C39.933 55 41.5 53.433 41.5 51.5C41.5 49.9145 40.4457 48.5752 39 48.1449V42.3885C39.9275 42.178 40.7463 41.681 41.3582 40.9955L46.633 44.0409C46.5464 44.3457 46.5 44.6674 46.5 45C46.5 46.933 48.067 48.5 50 48.5C51.933 48.5 53.5 46.933 53.5 45C53.5 43.067 51.933 41.5 50 41.5C49.1243 41.5 48.3237 41.8216 47.7098 42.3532L42.3257 39.2446C42.4392 38.8494 42.5 38.4318 42.5 38C42.5 35.8584 41.004 34.0662 39 33.6115V27.8551Z" fill="#4D4D4D"/>
</svg>
