<svg width="76" height="76" viewBox="0 0 76 76" fill="none" xmlns="http://www.w3.org/2000/svg">
<circle cx="38" cy="38" r="37.5" fill="white" stroke="#929292"/>
<circle cx="38" cy="38" r="30" fill="#E8E8E8"/>
<mask id="mask0_1946_63868" style="mask-type:alpha" maskUnits="userSpaceOnUse" x="18" y="18" width="40" height="40">
<rect x="18" y="18" width="40" height="40" fill="#4D4D4D"/>
</mask>
<g mask="url(#mask0_1946_63868)">
<path fill-rule="evenodd" clip-rule="evenodd" d="M38.75 40L38.75 48L37.25 48L37.25 40L38.75 40Z" fill="#4D4D4D"/>
<path d="M40.5 50C40.5 51.3807 39.3807 52.5 38 52.5C36.6193 52.5 35.5 51.3807 35.5 50C35.5 48.6193 36.6193 47.5 38 47.5C39.3807 47.5 40.5 48.6193 40.5 50Z" fill="#4D4D4D"/>
<path fill-rule="evenodd" clip-rule="evenodd" d="M38 48.25C37.0335 48.25 36.25 49.0335 36.25 50C36.25 50.9665 37.0335 51.75 38 51.75C38.9665 51.75 39.75 50.9665 39.75 50C39.75 49.0335 38.9665 48.25 38 48.25ZM34.75 50C34.75 48.2051 36.2051 46.75 38 46.75C39.7949 46.75 41.25 48.2051 41.25 50C41.25 51.7949 39.7949 53.25 38 53.25C36.2051 53.25 34.75 51.7949 34.75 50Z" fill="#4D4D4D"/>
<path fill-rule="evenodd" clip-rule="evenodd" d="M41.5 36.25L49.5 36.25V37.75L41.5 37.75V36.25Z" fill="#4D4D4D"/>
<path d="M51.5 34.5C52.8807 34.5 54 35.6193 54 37C54 38.3807 52.8807 39.5 51.5 39.5C50.1193 39.5 49 38.3807 49 37C49 35.6193 50.1193 34.5 51.5 34.5Z" fill="#4D4D4D"/>
<path fill-rule="evenodd" clip-rule="evenodd" d="M49.75 37C49.75 37.9665 50.5335 38.75 51.5 38.75C52.4665 38.75 53.25 37.9665 53.25 37C53.25 36.0335 52.4665 35.25 51.5 35.25C50.5335 35.25 49.75 36.0335 49.75 37ZM51.5 40.25C49.7051 40.25 48.25 38.7949 48.25 37C48.25 35.2051 49.7051 33.75 51.5 33.75C53.2949 33.75 54.75 35.2051 54.75 37C54.75 38.7949 53.2949 40.25 51.5 40.25Z" fill="#4D4D4D"/>
<path fill-rule="evenodd" clip-rule="evenodd" d="M41 39L44.182 42.182L43.1213 43.2426L39.9394 40.0607L41 39Z" fill="#4D4D4D"/>
<path d="M46.9467 42.9822C47.7653 43.8009 47.7653 45.1281 46.9467 45.9467C46.1281 46.7653 44.8009 46.7653 43.9822 45.9467C43.1636 45.1281 43.1636 43.8009 43.9822 42.9822C44.8009 42.1636 46.1281 42.1636 46.9467 42.9822Z" fill="#4D4D4D"/>
<path fill-rule="evenodd" clip-rule="evenodd" d="M44.5126 43.5126C43.9868 44.0383 43.9868 44.8907 44.5126 45.4164C45.0383 45.9421 45.8906 45.9421 46.4164 45.4164C46.9421 44.8907 46.9421 44.0383 46.4164 43.5126C45.8906 42.9869 45.0383 42.9869 44.5126 43.5126ZM43.4519 46.477C42.3404 45.3655 42.3404 43.5634 43.4519 42.4519C44.5634 41.3404 46.3655 41.3404 47.477 42.4519C48.5885 43.5634 48.5885 45.3655 47.477 46.477C46.3655 47.5886 44.5634 47.5886 43.4519 46.477Z" fill="#4D4D4D"/>
<path fill-rule="evenodd" clip-rule="evenodd" d="M34.2004 35.5646L28.1382 32.0646L28.8882 30.7656L34.9504 34.2656L34.2004 35.5646Z" fill="#4D4D4D"/>
<path d="M24.665 32.0801C23.4693 31.3898 23.0596 29.8608 23.75 28.6651C24.4403 27.4693 25.9693 27.0596 27.165 27.75C28.3607 28.4404 28.7704 29.9693 28.0801 31.1651C27.3897 32.3608 25.8607 32.7705 24.665 32.0801Z" fill="#4D4D4D"/>
<path fill-rule="evenodd" clip-rule="evenodd" d="M27.4306 30.7901C27.9138 29.9531 27.627 28.8828 26.79 28.3995C25.953 27.9163 24.8827 28.2031 24.3995 29.0401C23.9162 29.8771 24.203 30.9474 25.04 31.4306C25.877 31.9139 26.9473 31.6271 27.4306 30.7901ZM27.54 27.1005C29.0945 27.998 29.6271 29.9856 28.7296 31.5401C27.8322 33.0945 25.8445 33.6271 24.29 32.7297C22.7356 31.8322 22.203 29.8445 23.1004 28.2901C23.9979 26.7356 25.9856 26.203 27.54 27.1005Z" fill="#4D4D4D"/>
<path d="M41.5 37C41.5 38.933 39.933 40.5 38 40.5C36.067 40.5 34.5 38.933 34.5 37C34.5 35.067 36.067 33.5 38 33.5C39.933 33.5 41.5 35.067 41.5 37Z" fill="#4D4D4D"/>
<path fill-rule="evenodd" clip-rule="evenodd" d="M38 34.25C36.4812 34.25 35.25 35.4812 35.25 37C35.25 38.5188 36.4812 39.75 38 39.75C39.5188 39.75 40.75 38.5188 40.75 37C40.75 35.4812 39.5188 34.25 38 34.25ZM33.75 37C33.75 34.6528 35.6528 32.75 38 32.75C40.3472 32.75 42.25 34.6528 42.25 37C42.25 39.3472 40.3472 41.25 38 41.25C35.6528 41.25 33.75 39.3472 33.75 37Z" fill="#4D4D4D"/>
<path fill-rule="evenodd" clip-rule="evenodd" d="M39.5 33.5901L41.75 29.693L43.0491 30.443L40.7991 34.3401L39.5 33.5901Z" fill="#4D4D4D"/>
<path d="M41.4367 25.9884C42.2302 24.6141 43.9875 24.1432 45.3618 24.9367C46.7361 25.7301 47.2069 27.4874 46.4135 28.8617C45.62 30.236 43.8627 30.7069 42.4884 29.9135C41.1141 29.12 40.6433 27.3627 41.4367 25.9884Z" fill="#4D4D4D"/>
<path fill-rule="evenodd" clip-rule="evenodd" d="M42.8634 29.2639C43.879 29.8503 45.1776 29.5023 45.764 28.4867C46.3503 27.4711 46.0024 26.1725 44.9868 25.5862C43.9712 24.9998 42.6726 25.3478 42.0862 26.3634C41.4999 27.379 41.8479 28.6776 42.8634 29.2639ZM47.063 29.2367C46.0625 30.9697 43.8465 31.5635 42.1134 30.563C40.3804 29.5624 39.7866 27.3464 40.7872 25.6134C41.7878 23.8804 44.0038 23.2866 45.7368 24.2871C47.4698 25.2877 48.0636 27.5037 47.063 29.2367Z" fill="#4D4D4D"/>
<path fill-rule="evenodd" clip-rule="evenodd" d="M35.4289 40L32.2469 43.182L31.1863 42.1213L34.3683 38.9393L35.4289 40Z" fill="#4D4D4D"/>
<path d="M31.2233 45.2234C30.5378 45.9088 29.4265 45.9088 28.7411 45.2234C28.0556 44.5379 28.0556 43.4266 28.7411 42.7411C29.4265 42.0557 30.5378 42.0557 31.2233 42.7411C31.9087 43.4266 31.9087 44.5379 31.2233 45.2234Z" fill="#4D4D4D"/>
<path fill-rule="evenodd" clip-rule="evenodd" d="M30.693 43.2714C30.3004 42.8789 29.6639 42.8789 29.2714 43.2714C28.8788 43.664 28.8788 44.3005 29.2714 44.693C29.6639 45.0856 30.3004 45.0856 30.693 44.693C31.0855 44.3005 31.0855 43.664 30.693 43.2714ZM28.2107 42.2108C29.1891 41.2324 30.7753 41.2324 31.7536 42.2108C32.732 43.1891 32.732 44.7753 31.7536 45.7537C30.7753 46.732 29.1891 46.732 28.2107 45.7537C27.2324 44.7753 27.2324 43.1891 28.2107 42.2108Z" fill="#4D4D4D"/>
</g>
</svg>
