<svg width="38" height="38" viewBox="0 0 38 38" fill="none" xmlns="http://www.w3.org/2000/svg">
<circle cx="19" cy="19" r="19" fill="#F2F2F2"/>
<ellipse cx="19" cy="12.6" rx="9" ry="4.6" fill="#C8C8C8"/>
<path fill-rule="evenodd" clip-rule="evenodd" d="M28 13.52C28 16.0605 23.9706 18.12 19 18.12C14.0294 18.12 10 16.0605 10 13.52V17.2C10 19.7405 14.0294 21.8 19 21.8C23.9706 21.8 28 19.7405 28 17.2V13.52Z" fill="#A5A5A5"/>
<path fill-rule="evenodd" clip-rule="evenodd" d="M28 18.12C28 20.6605 23.9706 22.72 19 22.72C14.0294 22.72 10 20.6605 10 18.12V21.8C10 24.3405 14.0294 26.4 19 26.4C23.9706 26.4 28 24.3405 28 21.8V18.12Z" fill="#A5A5A5"/>
<path fill-rule="evenodd" clip-rule="evenodd" d="M28 13.52C28 16.0605 23.9706 18.12 19 18.12C14.0294 18.12 10 16.0605 10 13.52V17.2C10 19.7405 14.0294 21.8 19 21.8C23.9706 21.8 28 19.7405 28 17.2V13.52Z" fill="#A5A5A5"/>
<circle cx="12.1345" cy="22.894" r="0.5" fill="white"/>
<circle cx="13.8375" cy="23.5997" r="0.5" fill="white"/>
<path fill-rule="evenodd" clip-rule="evenodd" d="M28 22.72C28 25.2605 23.9706 27.32 19 27.32C14.0294 27.32 10 25.2605 10 22.72V26.4C10 28.9405 14.0294 31 19 31C23.9706 31 28 28.9405 28 26.4V22.72Z" fill="#A5A5A5"/>
<circle cx="12.1345" cy="27.6611" r="0.5" fill="white"/>
<circle cx="13.8375" cy="28.3668" r="0.5" fill="white"/>
<circle cx="12.1345" cy="18.2944" r="0.5" fill="white"/>
<circle cx="13.8375" cy="19" r="0.5" fill="white"/>
<path fill-rule="evenodd" clip-rule="evenodd" d="M19.6073 17.2C23.1873 16.4542 25.7694 14.3357 25.7694 11.8387C25.7694 10.797 25.32 9.82109 24.5361 8.98328C26.6445 9.82516 28 11.1368 28 12.6103C28 15.0465 24.2947 17.0404 19.6073 17.2Z" fill="#ABABAB"/>
<path fill-rule="evenodd" clip-rule="evenodd" d="M25.9176 20.1428C27.2178 19.3453 28 18.3193 28 17.2V13.52C28 14.6393 27.2178 15.6653 25.9176 16.4628V20.1428Z" fill="#8F8F8F"/>
<path fill-rule="evenodd" clip-rule="evenodd" d="M25.9176 24.7428C27.2178 23.9452 28 22.9193 28 21.8V18.12C28 19.2393 27.2178 20.2652 25.9176 21.0628V24.7428Z" fill="#8F8F8F"/>
<path fill-rule="evenodd" clip-rule="evenodd" d="M25.9176 29.3428C27.2178 28.5452 28 27.5193 28 26.4V22.72C28 23.8393 27.2178 24.8652 25.9176 25.6628V29.3428Z" fill="#8F8F8F"/>
</svg>
