<svg width="38" height="38" viewBox="0 0 38 38" fill="none" xmlns="http://www.w3.org/2000/svg">
<circle cx="19" cy="19" r="19" fill="#E3E3E3"/>
<path d="M29 24C29 23.4477 28.5523 23 28 23H10C9.44771 23 9 23.4477 9 24V29C9 29.5523 9.44771 30 10 30H28C28.5523 30 29 29.5523 29 29V24Z" fill="#ABABAB"/>
<circle cx="12.004" cy="26.5" r="0.8" fill="white"/>
<circle cx="15.004" cy="26.5" r="0.8" fill="white"/>
<g style="mix-blend-mode:multiply" opacity="0.4">
<path fill-rule="evenodd" clip-rule="evenodd" d="M26 30H28C28.5523 30 29 29.3827 29 28.6212V28.6742V25.9167V24.3788C29 23.6173 28.5523 23 28 23H26C26.5523 23 27 23.6173 27 24.3788V25.9167V28.6742V28.6212C27 29.3827 26.5523 30 26 30Z" fill="#ABABAB"/>
</g>
<path d="M28 16.1917C28 14.2587 26.433 12.6917 24.5 12.6917H13.5C11.567 12.6917 10 14.2587 10 16.1917V16.1917C10 18.1246 11.567 19.6917 13.5 19.6917H24.5C26.433 19.6917 28 18.1246 28 16.1917V16.1917Z" fill="white"/>
<path d="M19 7.69165C15.6863 7.69165 13 10.3779 13 13.6917L13 16.2763C13 16.5057 13.186 16.6916 13.4154 16.6916L24.5846 16.6917C24.814 16.6917 25 16.5057 25 16.2763L25 13.6917C25 10.3779 22.3137 7.69165 19 7.69165V7.69165Z" fill="white"/>
<path d="M18 18H20V21C20 21.5523 19.5523 22 19 22V22C18.4477 22 18 21.5523 18 21V18Z" fill="#7B7B7B"/>
<path d="M19 15.4961L21.5 19.0001H16.5L19 15.4961Z" fill="#7B7B7B"/>
</svg>
